<?xml version="1.0" standalone="no"?>
<!DOCTYPE svg PUBLIC "-//W3C//DTD SVG 20010904//EN"
 "http://www.w3.org/TR/2001/REC-SVG-20010904/DTD/svg10.dtd">
<svg version="1.0" xmlns="http://www.w3.org/2000/svg"
 width="700.000000pt" height="700.000000pt" viewBox="0 0 700.000000 700.000000"
 preserveAspectRatio="xMidYMid meet">
<metadata>
Created by potrace 1.11, written by Peter Selinger 2001-2013
</metadata>
<g transform="translate(0.000000,700.000000) scale(0.100000,-0.100000)"
fill="#000000" stroke="none">
<path d="M0 3500 l0 -3500 3500 0 3500 0 0 3500 0 3500 -3500 0 -3500 0 0
-3500z m6233 3001 c46 -113 87 -460 117 -966 48 -829 53 -2305 9 -3155 -49
-979 -146 -1562 -270 -1625 -40 -21 -62 -8 -93 58 -65 138 -202 692 -273 1105
-17 103 -33 133 -33 65 0 -66 -40 -394 -71 -582 -57 -343 -134 -584 -205 -640
-32 -25 -71 -27 -102 -5 -93 65 -176 452 -212 989 -19 289 -22 325 -26 325 -2
0 -63 -21 -136 -46 -366 -126 -746 -214 -1128 -261 -109 -13 -215 -17 -425
-17 -309 0 -446 15 -672 72 l-113 29 0 -236 c0 -670 -76 -1061 -205 -1061
-127 0 -264 445 -399 1290 -7 47 -16 78 -18 70 -3 -8 -15 -130 -27 -270 -56
-651 -145 -1104 -237 -1203 -26 -28 -61 -35 -94 -17 -47 25 -104 167 -145 361
-63 298 -121 894 -141 1445 l-7 192 -60 7 c-121 13 -250 76 -358 174 -206 185
-344 514 -394 936 -27 226 -106 1076 -103 1103 3 23 30 4 334 -236 l332 -261
98 55 c190 104 405 173 545 174 l66 0 138 320 c76 175 142 317 146 314 4 -2
43 -55 87 -117 209 -294 297 -454 415 -752 70 -176 104 -294 119 -412 7 -51
15 -93 19 -93 9 0 158 31 334 70 397 88 779 156 1040 187 247 28 745 22 1270
-16 231 -17 444 -33 473 -37 l52 -5 0 33 c0 48 18 431 35 753 58 1083 151
1785 251 1904 30 36 48 32 67 -18z"/>
<path d="M5984 3458 l-65 -62 -42 40 c-60 57 -72 65 -91 58 -31 -12 -18 -50
35 -99 l51 -48 -57 -57 c-37 -37 -56 -64 -53 -76 6 -36 37 -26 99 30 l62 55
79 -69 c67 -60 82 -69 98 -60 33 18 23 40 -52 110 l-73 68 63 66 c55 57 62 68
52 86 -17 32 -37 24 -106 -42z"/>
</g>
</svg>
